<svg id="my-svg" width="1326.2568359375" xmlns="http://www.w3.org/2000/svg" xmlns:xlink="http://www.w3.org/1999/xlink" class="classDiagram" height="634" viewBox="0 0 1326.2568359375 634" role="graphics-document document" aria-roledescription="class" style="background-color: white;"><style>#my-svg{font-family:Helvetica,Arial,sans-serif;font-size:16px;fill:#333;}@keyframes edge-animation-frame{from{stroke-dashoffset:0;}}@keyframes dash{to{stroke-dashoffset:0;}}#my-svg .edge-animation-slow{stroke-dasharray:9,5!important;stroke-dashoffset:900;animation:dash 50s linear infinite;stroke-linecap:round;}#my-svg .edge-animation-fast{stroke-dasharray:9,5!important;stroke-dashoffset:900;animation:dash 20s linear infinite;stroke-linecap:round;}#my-svg .error-icon{fill:#552222;}#my-svg .error-text{fill:#552222;stroke:#552222;}#my-svg .edge-thickness-normal{stroke-width:1px;}#my-svg .edge-thickness-thick{stroke-width:3.5px;}#my-svg .edge-pattern-solid{stroke-dasharray:0;}#my-svg .edge-thickness-invisible{stroke-width:0;fill:none;}#my-svg .edge-pattern-dashed{stroke-dasharray:3;}#my-svg .edge-pattern-dotted{stroke-dasharray:2;}#my-svg .marker{fill:#333333;stroke:#333333;}#my-svg .marker.cross{stroke:#333333;}#my-svg svg{font-family:Helvetica,Arial,sans-serif;font-size:16px;}#my-svg p{margin:0;}#my-svg g.classGroup text{fill:#9370DB;stroke:none;font-family:Helvetica,Arial,sans-serif;font-size:10px;}#my-svg g.classGroup text .title{font-weight:bolder;}#my-svg .cluster-label text{fill:#333;}#my-svg .cluster-label span{color:#333;}#my-svg .cluster-label span p{background-color:transparent;}#my-svg .cluster rect{fill:#ffffde;stroke:#aaaa33;stroke-width:1px;}#my-svg .cluster text{fill:#333;}#my-svg .cluster span{color:#333;}#my-svg .nodeLabel,#my-svg .edgeLabel{color:#131300;}#my-svg .noteLabel .nodeLabel,#my-svg .noteLabel .edgeLabel{color:black;}#my-svg .edgeLabel .label rect{fill:#ECECFF;}#my-svg .label text{fill:#131300;}#my-svg .labelBkg{background:#ECECFF;}#my-svg .edgeLabel .label span{background:#ECECFF;}#my-svg .classTitle{font-weight:bolder;}#my-svg .node rect,#my-svg .node circle,#my-svg .node ellipse,#my-svg .node polygon,#my-svg .node path{fill:#ECECFF;stroke:#9370DB;stroke-width:1;}#my-svg .divider{stroke:#9370DB;stroke-width:1;}#my-svg g.clickable{cursor:pointer;}#my-svg g.classGroup rect{fill:#ECECFF;stroke:#9370DB;}#my-svg g.classGroup line{stroke:#9370DB;stroke-width:1;}#my-svg .classLabel .box{stroke:none;stroke-width:0;fill:#ECECFF;opacity:0.5;}#my-svg .classLabel .label{fill:#9370DB;font-size:10px;}#my-svg .relation{stroke:#333333;stroke-width:1;fill:none;}#my-svg .dashed-line{stroke-dasharray:3;}#my-svg .dotted-line{stroke-dasharray:1 2;}#my-svg [id$="-compositionStart"],#my-svg .composition{fill:#333333!important;stroke:#333333!important;stroke-width:1;}#my-svg [id$="-compositionEnd"],#my-svg .composition{fill:#333333!important;stroke:#333333!important;stroke-width:1;}#my-svg [id$="-dependencyStart"],#my-svg .dependency{fill:#333333!important;stroke:#333333!important;stroke-width:1;}#my-svg [id$="-dependencyEnd"],#my-svg .dependency{fill:#333333!important;stroke:#333333!important;stroke-width:1;}#my-svg [id$="-extensionStart"],#my-svg .extension{fill:transparent!important;stroke:#333333!important;stroke-width:1;}#my-svg [id$="-extensionEnd"],#my-svg .extension{fill:transparent!important;stroke:#333333!important;stroke-width:1;}#my-svg [id$="-aggregationStart"],#my-svg .aggregation{fill:transparent!important;stroke:#333333!important;stroke-width:1;}#my-svg [id$="-aggregationEnd"],#my-svg .aggregation{fill:transparent!important;stroke:#333333!important;stroke-width:1;}#my-svg [id$="-lollipopStart"],#my-svg .lollipop{fill:#ECECFF!important;stroke:#333333!important;stroke-width:1;}#my-svg [id$="-lollipopEnd"],#my-svg .lollipop{fill:#ECECFF!important;stroke:#333333!important;stroke-width:1;}#my-svg .edgeTerminals{font-size:11px;line-height:initial;}#my-svg .classTitleText{text-anchor:middle;font-size:18px;fill:#333;}#my-svg .edgeLabel[data-look="neo"]{background-color:rgba(232,232,232, 0.8);text-align:center;}#my-svg .edgeLabel[data-look="neo"] p{background-color:rgba(232,232,232, 0.8);}#my-svg .edgeLabel[data-look="neo"] rect{opacity:0.5;background-color:rgba(232,232,232, 0.8);fill:rgba(232,232,232, 0.8);}#my-svg .label-icon{display:inline-block;height:1em;overflow:visible;vertical-align:-0.125em;}#my-svg .node .label-icon path{fill:currentColor;stroke:revert;stroke-width:revert;}#my-svg .node .neo-node{stroke:#9370DB;}#my-svg [data-look="neo"].node rect,#my-svg [data-look="neo"].cluster rect,#my-svg [data-look="neo"].node polygon{stroke:#9370DB;filter:drop-shadow(1px 2px 2px rgba(185, 185, 185, 1));}#my-svg [data-look="neo"].swimlane.cluster rect{filter:none;}#my-svg [data-look="neo"].node path{stroke:#9370DB;stroke-width:1px;}#my-svg [data-look="neo"].node .outer-path{filter:drop-shadow(1px 2px 2px rgba(185, 185, 185, 1));}#my-svg [data-look="neo"].node .neo-line path{stroke:#9370DB;filter:none;}#my-svg [data-look="neo"].node circle{stroke:#9370DB;filter:drop-shadow(1px 2px 2px rgba(185, 185, 185, 1));}#my-svg [data-look="neo"].node circle .state-start{fill:#000000;}#my-svg [data-look="neo"].icon-shape .icon{fill:#9370DB;filter:drop-shadow(1px 2px 2px rgba(185, 185, 185, 1));}#my-svg [data-look="neo"].icon-shape .icon-neo path{stroke:#9370DB;filter:drop-shadow(1px 2px 2px rgba(185, 185, 185, 1));}#my-svg :root{--mermaid-font-family:"trebuchet ms",verdana,arial,sans-serif;}</style><g><defs><marker id="my-svg_class-aggregationStart" class="marker aggregation class" refX="18" refY="7" markerWidth="190" markerHeight="240" orient="auto"><path d="M 18,7 L9,13 L1,7 L9,1 Z"/></marker></defs><defs><marker id="my-svg_class-aggregationEnd" class="marker aggregation class" refX="1" refY="7" markerWidth="20" markerHeight="28" orient="auto"><path d="M 18,7 L9,13 L1,7 L9,1 Z"/></marker></defs><defs><marker id="my-svg_class-aggregationStart-margin" class="marker aggregation class" refX="15" refY="7" markerWidth="190" markerHeight="240" orient="auto" markerUnits="userSpaceOnUse"><path d="M 18,7 L9,13 L1,7 L9,1 Z" style="stroke-width: 2;"/></marker></defs><defs><marker id="my-svg_class-aggregationEnd-margin" class="marker aggregation class" refX="1" refY="7" markerWidth="20" markerHeight="28" orient="auto" markerUnits="userSpaceOnUse"><path d="M 18,7 L9,13 L1,7 L9,1 Z" style="stroke-width: 2;"/></marker></defs><defs><marker id="my-svg_class-extensionStart" class="marker extension class" refX="18" refY="7" markerWidth="20" markerHeight="28" orient="auto" markerUnits="userSpaceOnUse"><path d="M 1,7 L18,13 V 1 Z"/></marker></defs><defs><marker id="my-svg_class-extensionEnd" class="marker extension class" refX="1" refY="7" markerWidth="20" markerHeight="28" orient="auto"><path d="M 1,1 V 13 L18,7 Z"/></marker></defs><marker id="my-svg_class-extensionStart-margin" class="marker extension class" refX="18" refY="7" markerWidth="20" markerHeight="28" orient="auto" markerUnits="userSpaceOnUse" viewBox="0 0 20 14"><polygon points="10,7 18,13 18,1" style="stroke-width: 2; stroke-dasharray: 0;"/></marker><defs><marker id="my-svg_class-extensionEnd-margin" class="marker extension class" refX="9" refY="7" markerWidth="20" markerHeight="28" orient="auto" markerUnits="userSpaceOnUse" viewBox="0 0 20 14"><polygon points="10,1 10,13 18,7" style="stroke-width: 2; stroke-dasharray: 0;"/></marker></defs><defs><marker id="my-svg_class-compositionStart" class="marker composition class" refX="18" refY="7" markerWidth="190" markerHeight="240" orient="auto"><path d="M 18,7 L9,13 L1,7 L9,1 Z"/></marker></defs><defs><marker id="my-svg_class-compositionEnd" class="marker composition class" refX="1" refY="7" markerWidth="20" markerHeight="28" orient="auto"><path d="M 18,7 L9,13 L1,7 L9,1 Z"/></marker></defs><defs><marker id="my-svg_class-compositionStart-margin" class="marker composition class" refX="15" refY="7" markerWidth="190" markerHeight="240" orient="auto" markerUnits="userSpaceOnUse"><path viewBox="0 0 15 15" d="M 18,7 L9,13 L1,7 L9,1 Z" style="stroke-width: 0;"/></marker></defs><defs><marker id="my-svg_class-compositionEnd-margin" class="marker composition class" refX="3.5" refY="7" markerWidth="20" markerHeight="28" orient="auto" markerUnits="userSpaceOnUse"><path d="M 18,7 L9,13 L1,7 L9,1 Z" style="stroke-width: 0;"/></marker></defs><defs><marker id="my-svg_class-dependencyStart" class="marker dependency class" refX="6" refY="7" markerWidth="190" markerHeight="240" orient="auto"><path d="M 5,7 L9,13 L1,7 L9,1 Z"/></marker></defs><defs><marker id="my-svg_class-dependencyEnd" class="marker dependency class" refX="13" refY="7" markerWidth="20" markerHeight="28" orient="auto"><path d="M 18,7 L9,13 L14,7 L9,1 Z"/></marker></defs><defs><marker id="my-svg_class-dependencyStart-margin" class="marker dependency class" refX="4" refY="7" markerWidth="190" markerHeight="240" orient="auto" markerUnits="userSpaceOnUse"><path d="M 5,7 L9,13 L1,7 L9,1 Z" style="stroke-width: 0;"/></marker></defs><defs><marker id="my-svg_class-dependencyEnd-margin" class="marker dependency class" refX="16" refY="7" markerWidth="20" markerHeight="28" orient="auto" markerUnits="userSpaceOnUse"><path d="M 18,7 L9,13 L14,7 L9,1 Z" style="stroke-width: 0;"/></marker></defs><defs><marker id="my-svg_class-lollipopStart" class="marker lollipop class" refX="13" refY="7" markerWidth="190" markerHeight="240" orient="auto"><circle fill="transparent" cx="7" cy="7" r="6"/></marker></defs><defs><marker id="my-svg_class-lollipopEnd" class="marker lollipop class" refX="1" refY="7" markerWidth="190" markerHeight="240" orient="auto"><circle fill="transparent" cx="7" cy="7" r="6"/></marker></defs><defs><marker id="my-svg_class-lollipopStart-margin" class="marker lollipop class" refX="13" refY="7" markerWidth="190" markerHeight="240" orient="auto" markerUnits="userSpaceOnUse"><circle fill="transparent" cx="7" cy="7" r="6" stroke-width="2"/></marker></defs><defs><marker id="my-svg_class-lollipopEnd-margin" class="marker lollipop class" refX="1" refY="7" markerWidth="190" markerHeight="240" orient="auto" markerUnits="userSpaceOnUse"><circle fill="transparent" cx="7" cy="7" r="6" stroke-width="2"/></marker></defs><g class="root"><g class="clusters"/><g class="edgePaths"><path d="M225.272,408.224L203.141,416.02C181.011,423.816,136.75,439.408,114.619,454.704C92.488,470,92.488,485,92.488,492.5L92.488,500" id="my-svg-id_Gate_VLEIGate_1" class="edge-thickness-normal edge-pattern-dashed relation" style=";;;" data-edge="true" data-et="edge" data-id="id_Gate_VLEIGate_1" data-points="W3sieCI6MjQxLjU0MTk5MjE4NzUsInkiOjQwMi40OTI0MDg2MDUzMDc5fSx7IngiOjkyLjQ4ODI4MTI1LCJ5Ijo0NTV9LHsieCI6OTIuNDg4MjgxMjUsInkiOjUwMH1d" data-look="classic" marker-start="url(#my-svg_class-extensionStart)"/><path d="M332.71,442.671L330.812,444.726C328.913,446.781,325.117,450.89,323.219,460.445C321.32,470,321.32,485,321.32,492.5L321.32,500" id="my-svg-id_Gate_ERC3643Gate_2" class="edge-thickness-normal edge-pattern-dashed relation" style=";;;" data-edge="true" data-et="edge" data-id="id_Gate_ERC3643Gate_2" data-points="W3sieCI6MzQ0LjQxNTE5ODQxNzg4NzA0LCJ5Ijo0MzB9LHsieCI6MzIxLjMyMDMxMjUsInkiOjQ1NX0seyJ4IjozMjEuMzIwMzEyNSwieSI6NTAwfV0=" data-look="classic" marker-start="url(#my-svg_class-extensionStart)"/><path d="M549.326,441.552L551.812,443.793C554.297,446.034,559.269,450.517,561.755,460.259C564.24,470,564.24,485,564.24,492.5L564.24,500" id="my-svg-id_Gate_ISO20022Gate_3" class="edge-thickness-normal edge-pattern-dashed relation" style=";;;" data-edge="true" data-et="edge" data-id="id_Gate_ISO20022Gate_3" data-points="W3sieCI6NTM2LjUxNTA1Mjk1NTAyMDksInkiOjQzMH0seyJ4Ijo1NjQuMjQwMjM0Mzc1LCJ5Ijo0NTV9LHsieCI6NTY0LjI0MDIzNDM3NSwieSI6NTAwfV0=" data-look="classic" marker-start="url(#my-svg_class-extensionStart)"/><path d="M638.266,403.678L664.181,412.231C690.096,420.785,741.925,437.893,767.839,452.28C793.754,466.667,793.754,478.333,793.754,484.167L793.754,490" id="my-svg-id_Gate_ACTUSGate_4" class="edge-thickness-normal edge-pattern-dashed relation" style=";;;" data-edge="true" data-et="edge" data-id="id_Gate_ACTUSGate_4" data-points="W3sieCI6NjIxLjg4NTc0MjE4NzUsInkiOjM5OC4yNzA3ODk0NDQ1ODA4fSx7IngiOjc5My43NTM5MDYyNSwieSI6NDU1fSx7IngiOjc5My43NTM5MDYyNSwieSI6NDkwfV0=" data-look="classic" marker-start="url(#my-svg_class-extensionStart)"/><path d="M752.124,145.822L698.722,157.519C645.321,169.215,538.517,192.607,485.116,208.47C431.714,224.333,431.714,232.667,431.714,236.833L431.714,241" id="my-svg-id_FEK_Gate_5" class="edge-thickness-normal edge-pattern-solid relation" style=";;;" data-edge="true" data-et="edge" data-id="id_FEK_Gate_5" data-points="W3sieCI6NzY4Ljk3NDYwOTM3NSwieSI6MTQyLjEzMTU0NTAzMDEwMDg1fSx7IngiOjQzMS43MTM4NjcxODc1LCJ5IjoyMTZ9LHsieCI6NDMxLjcxMzg2NzE4NzUsInkiOjI0MX1d" data-look="classic" marker-start="url(#my-svg_class-aggregationStart)"/><path d="M846.574,202.389L843.994,204.658C841.413,206.926,836.252,211.463,833.671,224.315C831.091,237.167,831.091,258.333,831.091,268.917L831.091,279.5" id="my-svg-id_FEK_PolicyEngine_6" class="edge-thickness-normal edge-pattern-solid relation" style=";;;" data-edge="true" data-et="edge" data-id="id_FEK_PolicyEngine_6" data-points="W3sieCI6ODU5LjUyOTk1NDkwMjA5MjMsInkiOjE5MX0seyJ4Ijo4MzEuMDkwODIwMzEyNSwieSI6MjE2fSx7IngiOjgzMS4wOTA4MjAzMTI1LCJ5IjoyNzkuNX1d" data-look="classic" marker-start="url(#my-svg_class-compositionStart)"/><path d="M1148.175,199.199L1153.358,201.999C1158.542,204.799,1168.909,210.4,1174.093,223.783C1179.276,237.167,1179.276,258.333,1179.276,268.917L1179.276,279.5" id="my-svg-id_FEK_AuditSink_7" class="edge-thickness-normal edge-pattern-solid relation" style=";;;" data-edge="true" data-et="edge" data-id="id_FEK_AuditSink_7" data-points="W3sieCI6MTEzMi45OTc1NzMyNjMxNDM3LCJ5IjoxOTF9LHsieCI6MTE3OS4yNzYzNjcxODc1LCJ5IjoyMTZ9LHsieCI6MTE3OS4yNzYzNjcxODc1LCJ5IjoyNzkuNX1d" data-look="classic" marker-start="url(#my-svg_class-compositionStart)"/><path d="M621.886,372.45L692.696,386.208C763.507,399.967,905.129,427.483,975.939,444.408C1046.75,461.333,1046.75,467.667,1046.75,470.833L1046.75,474" id="my-svg-id_Gate_GateResult_8" class="edge-thickness-normal edge-pattern-dashed relation" style=";;;" data-edge="true" data-et="edge" data-id="id_Gate_GateResult_8" data-points="W3sieCI6NjIxLjg4NTc0MjE4NzUsInkiOjM3Mi40NDk5MjUxMzQ2MDY5fSx7IngiOjEwNDYuNzUsInkiOjQ1NX0seyJ4IjoxMDQ2Ljc1LCJ5Ijo0ODB9XQ==" data-look="classic" marker-end="url(#my-svg_class-dependencyEnd)"/></g><g class="edgeLabels"><g class="edgeLabel"><g class="label" data-id="id_Gate_VLEIGate_1" transform="translate(0, 0)"><text y="-10.1" text-anchor="middle"><tspan class="text-outer-tspan row" x="0" y="-0.1em" dy="1.1em" text-anchor="middle"/></text></g></g><g><rect class="background" style="stroke: none"/></g><g class="edgeLabel"><g class="label" data-id="id_Gate_ERC3643Gate_2" transform="translate(0, 0)"><text y="-10.1" text-anchor="middle"><tspan class="text-outer-tspan row" x="0" y="-0.1em" dy="1.1em" text-anchor="middle"/></text></g></g><g><rect class="background" style="stroke: none"/></g><g class="edgeLabel"><g class="label" data-id="id_Gate_ISO20022Gate_3" transform="translate(0, 0)"><text y="-10.1" text-anchor="middle"><tspan class="text-outer-tspan row" x="0" y="-0.1em" dy="1.1em" text-anchor="middle"/></text></g></g><g><rect class="background" style="stroke: none"/></g><g class="edgeLabel"><g class="label" data-id="id_Gate_ACTUSGate_4" transform="translate(0, 0)"><text y="-10.1" text-anchor="middle"><tspan class="text-outer-tspan row" x="0" y="-0.1em" dy="1.1em" text-anchor="middle"/></text></g></g><g><rect class="background" style="stroke: none"/></g><g class="edgeLabel"><g class="label" data-id="id_FEK_Gate_5" transform="translate(0, 0)"><text y="-10.1" text-anchor="middle"><tspan class="text-outer-tspan row" x="0" y="-0.1em" dy="1.1em" text-anchor="middle"/></text></g></g><g><rect class="background" style="stroke: none"/></g><g class="edgeLabel"><g class="label" data-id="id_FEK_PolicyEngine_6" transform="translate(0, 0)"><text y="-10.1" text-anchor="middle"><tspan class="text-outer-tspan row" x="0" y="-0.1em" dy="1.1em" text-anchor="middle"/></text></g></g><g><rect class="background" style="stroke: none"/></g><g class="edgeLabel"><g class="label" data-id="id_FEK_AuditSink_7" transform="translate(0, 0)"><text y="-10.1" text-anchor="middle"><tspan class="text-outer-tspan row" x="0" y="-0.1em" dy="1.1em" text-anchor="middle"/></text></g></g><g><rect class="background" style="stroke: none"/></g><g class="edgeLabel"><g class="label" data-id="id_Gate_GateResult_8" transform="translate(0, 0)"><text y="-10.1" text-anchor="middle"><tspan class="text-outer-tspan row" x="0" y="-0.1em" dy="1.1em" text-anchor="middle"/></text></g></g><g><rect class="background" style="stroke: none"/></g></g><g class="nodes"><g class="node default" id="my-svg-classId-Gate-0" data-look="classic" transform="translate(431.7138671875, 335.5)"><g class="basic label-container outer-path"><path d="M-190.171875 -94.5 L190.171875 -94.5 L190.171875 94.5 L-190.171875 94.5" stroke="none" stroke-width="0" fill="#ECECFF" style=""/><path d="M-190.171875 -94.5 C-77.3750544062658 -94.5, 35.42176618746839 -94.5, 190.171875 -94.5 M-190.171875 -94.5 C-45.64615581089984 -94.5, 98.87956337820032 -94.5, 190.171875 -94.5 M190.171875 -94.5 C190.171875 -30.390159315787926, 190.171875 33.71968136842415, 190.171875 94.5 M190.171875 -94.5 C190.171875 -28.04944104226486, 190.171875 38.40111791547028, 190.171875 94.5 M190.171875 94.5 C39.93052872714412 94.5, -110.31081754571176 94.5, -190.171875 94.5 M190.171875 94.5 C51.95058487469856 94.5, -86.27070525060287 94.5, -190.171875 94.5 M-190.171875 94.5 C-190.171875 49.24353968537084, -190.171875 3.9870793707416823, -190.171875 -94.5 M-190.171875 94.5 C-190.171875 45.86748211147019, -190.171875 -2.765035777059623, -190.171875 -94.5" stroke="#9370DB" stroke-width="1.3" fill="none" stroke-dasharray="0 0" style=""/></g><g class="annotation-group text" transform="translate(-39.6328125, -74.5)"><g class="label" style="" transform="translate(0,-8.5)"><g><rect class="background" style="stroke: none"/><text y="-10.1" style=""><tspan class="text-outer-tspan row" x="0" y="-0.1em" dy="1.1em"><tspan font-style="normal" class="text-inner-tspan" font-weight="normal">«interface»</tspan></tspan></text></g></g></g><g class="label-group text" transform="translate(-17.8359375, -57.5)"><g class="label" style="font-weight: bolder" transform="translate(0,-8.5)"><g><rect class="background" style="stroke: none"/><text y="-10.1" style=""><tspan class="text-outer-tspan row" x="0" y="-0.1em" dy="1.1em" font-weight=""><tspan font-style="normal" class="text-inner-tspan" font-weight="">Gate</tspan></tspan></text></g></g></g><g class="members-group text" transform="translate(-178.171875, -16.5)"/><g class="methods-group text" transform="translate(-178.171875, 13.5)"><g class="label" style="" transform="translate(0,-8.5)"><g><rect class="background" style="stroke: none"/><text y="-10.1" style=""><tspan class="text-outer-tspan row" x="0" y="-0.1em" dy="1.1em"><tspan font-style="normal" class="text-inner-tspan" font-weight="normal">+ID()</tspan><tspan font-style="normal" class="text-inner-tspan" font-weight="normal"> :</tspan><tspan font-style="normal" class="text-inner-tspan" font-weight="normal"> GateID</tspan></tspan></text></g></g><g class="label" style="" transform="translate(0,11.5)"><g><rect class="background" style="stroke: none"/><text y="-10.1" style=""><tspan class="text-outer-tspan row" x="0" y="-0.1em" dy="1.1em"><tspan font-style="normal" class="text-inner-tspan" font-weight="normal">+Profile()</tspan><tspan font-style="normal" class="text-inner-tspan" font-weight="normal"> :</tspan><tspan font-style="normal" class="text-inner-tspan" font-weight="normal"> ProfileID</tspan></tspan></text></g></g><g class="label" style="" transform="translate(0,31.5)"><g><rect class="background" style="stroke: none"/><text y="-10.1" style=""><tspan class="text-outer-tspan row" x="0" y="-0.1em" dy="1.1em"><tspan font-style="normal" class="text-inner-tspan" font-weight="normal">+DependsOn()</tspan><tspan font-style="normal" class="text-inner-tspan" font-weight="normal"> :</tspan><tspan font-style="normal" class="text-inner-tspan" font-weight="normal"> GateID[]</tspan></tspan></text></g></g><g class="label" style="" transform="translate(0,51.5)"><g><rect class="background" style="stroke: none"/><text y="-10.1" style=""><tspan class="text-outer-tspan row" x="0" y="-0.1em" dy="1.1em"><tspan font-style="normal" class="text-inner-tspan" font-weight="normal">+Evaluate(ctx,</tspan><tspan font-style="normal" class="text-inner-tspan" font-weight="normal"> ControlRequest)</tspan><tspan font-style="normal" class="text-inner-tspan" font-weight="normal"> :</tspan><tspan font-style="normal" class="text-inner-tspan" font-weight="normal"> GateResult</tspan></tspan></text></g></g></g><g class="divider" style=""><path d="M-190.171875 -36.5 C-47.55373496800087 -36.499625028306546, 95.06440506399827 -36.49925005661309, 190.171875 -36.499 M-190.171875 -36.5 C-80.90130039964501 -36.49971270574421, 28.36927420070998 -36.499425411488424, 190.171875 -36.499" stroke="#9370DB" stroke-width="1.3" fill="none" stroke-dasharray="0 0" style=""/></g><g class="divider" style=""><path d="M-190.171875 -12.5 C-46.08735376360286 -12.499621172896264, 97.99716747279427 -12.49924234579253, 190.171875 -12.499 M-190.171875 -12.5 C-55.642040406988286 -12.499646294083727, 78.88779418602343 -12.499292588167451, 190.171875 -12.499" stroke="#9370DB" stroke-width="1.3" fill="none" stroke-dasharray="0 0" style=""/></g></g><g class="node default" id="my-svg-classId-GateResult-1" data-look="classic" transform="translate(1046.75, 553)"><g class="basic label-container outer-path"><path d="M-122.05859375 -73 L122.05859375 -73 L122.05859375 73 L-122.05859375 73" stroke="none" stroke-width="0" fill="#ECECFF" style=""/><path d="M-122.05859375 -73 C-24.51981696273124 -73, 73.01895982453752 -73, 122.05859375 -73 M-122.05859375 -73 C-49.66441795696885 -73, 22.729757836062305 -73, 122.05859375 -73 M122.05859375 -73 C122.05859375 -20.558384704559785, 122.05859375 31.88323059088043, 122.05859375 73 M122.05859375 -73 C122.05859375 -14.870499163391486, 122.05859375 43.25900167321703, 122.05859375 73 M122.05859375 73 C39.4561136782399 73, -43.146366393520196 73, -122.05859375 73 M122.05859375 73 C57.3926509267484 73, -7.273291896503196 73, -122.05859375 73 M-122.05859375 73 C-122.05859375 39.52400729121419, -122.05859375 6.0480145824283795, -122.05859375 -73 M-122.05859375 73 C-122.05859375 21.909920471681453, -122.05859375 -29.180159056637095, -122.05859375 -73" stroke="#9370DB" stroke-width="1.3" fill="none" stroke-dasharray="0 0" style=""/></g><g class="annotation-group text" transform="translate(0, -53)"/><g class="label-group text" transform="translate(-42.5703125, -53)"><g class="label" style="font-weight: bolder" transform="translate(0,-8.5)"><g><rect class="background" style="stroke: none"/><text y="-10.1" style=""><tspan class="text-outer-tspan row" x="0" y="-0.1em" dy="1.1em" font-weight=""><tspan font-style="normal" class="text-inner-tspan" font-weight="">GateResult</tspan></tspan></text></g></g></g><g class="members-group text" transform="translate(-110.05859375, -12)"><g class="label" style="" transform="translate(0,-8.5)"><g><rect class="background" style="stroke: none"/><text y="-10.1" style=""><tspan class="text-outer-tspan row" x="0" y="-0.1em" dy="1.1em"><tspan font-style="normal" class="text-inner-tspan" font-weight="normal">+Decision</tspan><tspan font-style="normal" class="text-inner-tspan" font-weight="normal"> decision</tspan></tspan></text></g></g><g class="label" style="" transform="translate(0,11.5)"><g><rect class="background" style="stroke: none"/><text y="-10.1" style=""><tspan class="text-outer-tspan row" x="0" y="-0.1em" dy="1.1em"><tspan font-style="normal" class="text-inner-tspan" font-weight="normal">+ReasonCode[]</tspan><tspan font-style="normal" class="text-inner-tspan" font-weight="normal"> reasons</tspan></tspan></text></g></g><g class="label" style="" transform="translate(0,31.5)"><g><rect class="background" style="stroke: none"/><text y="-10.1" style=""><tspan class="text-outer-tspan row" x="0" y="-0.1em" dy="1.1em"><tspan font-style="normal" class="text-inner-tspan" font-weight="normal">+EvidenceRef[]</tspan><tspan font-style="normal" class="text-inner-tspan" font-weight="normal"> evidence</tspan></tspan></text></g></g></g><g class="methods-group text" transform="translate(-110.05859375, 69)"/><g class="divider" style=""><path d="M-122.05859375 -32 C-63.477606884784656 -31.99976002924061, -4.896620019569312 -31.999520058481213, 122.05859375 -31.999 M-122.05859375 -32 C-31.739326785692796 -31.999630016764122, 58.57994017861441 -31.999260033528245, 122.05859375 -31.999" stroke="#9370DB" stroke-width="1.3" fill="none" stroke-dasharray="0 0" style=""/></g><g class="divider" style=""><path d="M-122.05859375 49 C-31.093743639623156 49.00037262779832, 59.87110647075369 49.00074525559664, 122.05859375 49.001 M-122.05859375 49 C-56.10589700178008 49.00027016818203, 9.846799746439842 49.000540336364054, 122.05859375 49.001" stroke="#9370DB" stroke-width="1.3" fill="none" stroke-dasharray="0 0" style=""/></g></g><g class="node default" id="my-svg-classId-FEK-2" data-look="classic" transform="translate(963.6171875, 99.5)"><g class="basic label-container outer-path"><path d="M-194.642578125 -91.5 L194.642578125 -91.5 L194.642578125 91.5 L-194.642578125 91.5" stroke="none" stroke-width="0" fill="#ECECFF" style=""/><path d="M-194.642578125 -91.5 C-81.77876134084123 -91.5, 31.085055443317543 -91.5, 194.642578125 -91.5 M-194.642578125 -91.5 C-105.8681872974358 -91.5, -17.09379646987159 -91.5, 194.642578125 -91.5 M194.642578125 -91.5 C194.642578125 -50.304628097137375, 194.642578125 -9.10925619427475, 194.642578125 91.5 M194.642578125 -91.5 C194.642578125 -24.865168776688535, 194.642578125 41.76966244662293, 194.642578125 91.5 M194.642578125 91.5 C41.52226452782105 91.5, -111.5980490693579 91.5, -194.642578125 91.5 M194.642578125 91.5 C115.38579366303752 91.5, 36.129009201075036 91.5, -194.642578125 91.5 M-194.642578125 91.5 C-194.642578125 48.12600757863157, -194.642578125 4.752015157263145, -194.642578125 -91.5 M-194.642578125 91.5 C-194.642578125 39.76793423749752, -194.642578125 -11.964131525004959, -194.642578125 -91.5" stroke="#9370DB" stroke-width="1.3" fill="none" stroke-dasharray="0 0" style=""/></g><g class="annotation-group text" transform="translate(0, -71.5)"/><g class="label-group text" transform="translate(-16.22265625, -71.5)"><g class="label" style="font-weight: bolder" transform="translate(0,-8.5)"><g><rect class="background" style="stroke: none"/><text y="-10.1" style=""><tspan class="text-outer-tspan row" x="0" y="-0.1em" dy="1.1em" font-weight=""><tspan font-style="normal" class="text-inner-tspan" font-weight="">FEK</tspan></tspan></text></g></g></g><g class="members-group text" transform="translate(-182.642578125, -30.5)"><g class="label" style="" transform="translate(0,-8.5)"><g><rect class="background" style="stroke: none"/><text y="-10.1" style=""><tspan class="text-outer-tspan row" x="0" y="-0.1em" dy="1.1em"><tspan font-style="normal" class="text-inner-tspan" font-weight="normal">-map&lt;GateID,Gate&gt;</tspan><tspan font-style="normal" class="text-inner-tspan" font-weight="normal"> gates</tspan></tspan></text></g></g><g class="label" style="" transform="translate(0,11.5)"><g><rect class="background" style="stroke: none"/><text y="-10.1" style=""><tspan class="text-outer-tspan row" x="0" y="-0.1em" dy="1.1em"><tspan font-style="normal" class="text-inner-tspan" font-weight="normal">-PolicyEngine</tspan><tspan font-style="normal" class="text-inner-tspan" font-weight="normal"> policy</tspan></tspan></text></g></g><g class="label" style="" transform="translate(0,31.5)"><g><rect class="background" style="stroke: none"/><text y="-10.1" style=""><tspan class="text-outer-tspan row" x="0" y="-0.1em" dy="1.1em"><tspan font-style="normal" class="text-inner-tspan" font-weight="normal">-AuditSink</tspan><tspan font-style="normal" class="text-inner-tspan" font-weight="normal"> audit</tspan></tspan></text></g></g></g><g class="methods-group text" transform="translate(-182.642578125, 50.5)"><g class="label" style="" transform="translate(0,-8.5)"><g><rect class="background" style="stroke: none"/><text y="-10.1" style=""><tspan class="text-outer-tspan row" x="0" y="-0.1em" dy="1.1em"><tspan font-style="normal" class="text-inner-tspan" font-weight="normal">+Register(Gate)</tspan><tspan font-style="normal" class="text-inner-tspan" font-weight="normal"> :</tspan><tspan font-style="normal" class="text-inner-tspan" font-weight="normal"> error</tspan></tspan></text></g></g><g class="label" style="" transform="translate(0,11.5)"><g><rect class="background" style="stroke: none"/><text y="-10.1" style=""><tspan class="text-outer-tspan row" x="0" y="-0.1em" dy="1.1em"><tspan font-style="normal" class="text-inner-tspan" font-weight="normal">+Evaluate(ctx,</tspan><tspan font-style="normal" class="text-inner-tspan" font-weight="normal"> ControlRequest)</tspan><tspan font-style="normal" class="text-inner-tspan" font-weight="normal"> :</tspan><tspan font-style="normal" class="text-inner-tspan" font-weight="normal"> ControlDecision</tspan></tspan></text></g></g></g><g class="divider" style=""><path d="M-194.642578125 -50.5 C-39.81450947936901 -50.49960227595078, 115.01355916626198 -50.499204551901556, 194.642578125 -50.499 M-194.642578125 -50.5 C-55.60998636724241 -50.4996428515459, 83.42260539051517 -50.49928570309181, 194.642578125 -50.499" stroke="#9370DB" stroke-width="1.3" fill="none" stroke-dasharray="0 0" style=""/></g><g class="divider" style=""><path d="M-194.642578125 30.5 C-102.22058484779392 30.500237414634988, -9.798591570587831 30.500474829269976, 194.642578125 30.501 M-194.642578125 30.5 C-59.83822091367989 30.500346286918592, 74.96613629764022 30.500692573837185, 194.642578125 30.501" stroke="#9370DB" stroke-width="1.3" fill="none" stroke-dasharray="0 0" style=""/></g></g><g class="node default" id="my-svg-classId-VLEIGate-3" data-look="classic" transform="translate(92.48828125, 553)"><g class="basic label-container outer-path"><path d="M-84.48828125 -53 L84.48828125 -53 L84.48828125 53 L-84.48828125 53" stroke="none" stroke-width="0" fill="#ECECFF" style=""/><path d="M-84.48828125 -53 C-31.920836110440078 -53, 20.646609029119844 -53, 84.48828125 -53 M-84.48828125 -53 C-21.606976715579954 -53, 41.27432781884009 -53, 84.48828125 -53 M84.48828125 -53 C84.48828125 -12.03724927739163, 84.48828125 28.92550144521674, 84.48828125 53 M84.48828125 -53 C84.48828125 -26.04442261500348, 84.48828125 0.9111547699930398, 84.48828125 53 M84.48828125 53 C49.77720761230365 53, 15.066133974607297 53, -84.48828125 53 M84.48828125 53 C45.92851858571651 53, 7.368755921433021 53, -84.48828125 53 M-84.48828125 53 C-84.48828125 11.02015287242076, -84.48828125 -30.95969425515848, -84.48828125 -53 M-84.48828125 53 C-84.48828125 23.323561088218177, -84.48828125 -6.352877823563645, -84.48828125 -53" stroke="#9370DB" stroke-width="1.3" fill="none" stroke-dasharray="0 0" style=""/></g><g class="annotation-group text" transform="translate(0, -33)"/><g class="label-group text" transform="translate(-35.6171875, -33)"><g class="label" style="font-weight: bolder" transform="translate(0,-8.5)"><g><rect class="background" style="stroke: none"/><text y="-10.1" style=""><tspan class="text-outer-tspan row" x="0" y="-0.1em" dy="1.1em" font-weight=""><tspan font-style="normal" class="text-inner-tspan" font-weight="">VLEIGate</tspan></tspan></text></g></g></g><g class="members-group text" transform="translate(-72.48828125, 8)"><g class="label" style="" transform="translate(0,-8.5)"><g><rect class="background" style="stroke: none"/><text y="-10.1" style=""><tspan class="text-outer-tspan row" x="0" y="-0.1em" dy="1.1em"><tspan font-style="normal" class="text-inner-tspan" font-weight="normal">Profile:</tspan><tspan font-style="normal" class="text-inner-tspan" font-weight="normal"> vlei-keri</tspan></tspan></text></g></g></g><g class="methods-group text" transform="translate(-72.48828125, 49)"/><g class="divider" style=""><path d="M-84.48828125 -12 C-24.62232382667643 -11.999645714432004, 35.24363359664714 -11.999291428864009, 84.48828125 -11.999 M-84.48828125 -12 C-32.50994108859215 -11.999692393197066, 19.4683990728157 -11.999384786394133, 84.48828125 -11.999" stroke="#9370DB" stroke-width="1.3" fill="none" stroke-dasharray="0 0" style=""/></g><g class="divider" style=""><path d="M-84.48828125 29 C-19.736894860995463 29.000383197441298, 45.014491528009074 29.000766394882593, 84.48828125 29.001 M-84.48828125 29 C-24.778241363245428 29.000353362851058, 34.931798523509144 29.000706725702113, 84.48828125 29.001" stroke="#9370DB" stroke-width="1.3" fill="none" stroke-dasharray="0 0" style=""/></g></g><g class="node default" id="my-svg-classId-ERC3643Gate-4" data-look="classic" transform="translate(321.3203125, 553)"><g class="basic label-container outer-path"><path d="M-94.34375 -53 L94.34375 -53 L94.34375 53 L-94.34375 53" stroke="none" stroke-width="0" fill="#ECECFF" style=""/><path d="M-94.34375 -53 C-22.00214934280619 -53, 50.33945131438762 -53, 94.34375 -53 M-94.34375 -53 C-21.6757534784647 -53, 50.9922430430706 -53, 94.34375 -53 M94.34375 -53 C94.34375 -21.941835050222394, 94.34375 9.116329899555211, 94.34375 53 M94.34375 -53 C94.34375 -25.014833112310345, 94.34375 2.9703337753793093, 94.34375 53 M94.34375 53 C55.41137553420727 53, 16.479001068414533 53, -94.34375 53 M94.34375 53 C56.41743354218941 53, 18.491117084378814 53, -94.34375 53 M-94.34375 53 C-94.34375 24.854628519752353, -94.34375 -3.290742960495294, -94.34375 -53 M-94.34375 53 C-94.34375 11.926107231742876, -94.34375 -29.14778553651425, -94.34375 -53" stroke="#9370DB" stroke-width="1.3" fill="none" stroke-dasharray="0 0" style=""/></g><g class="annotation-group text" transform="translate(0, -33)"/><g class="label-group text" transform="translate(-52.5234375, -33)"><g class="label" style="font-weight: bolder" transform="translate(0,-8.5)"><g><rect class="background" style="stroke: none"/><text y="-10.1" style=""><tspan class="text-outer-tspan row" x="0" y="-0.1em" dy="1.1em" font-weight=""><tspan font-style="normal" class="text-inner-tspan" font-weight="">ERC3643Gate</tspan></tspan></text></g></g></g><g class="members-group text" transform="translate(-82.34375, 8)"><g class="label" style="" transform="translate(0,-8.5)"><g><rect class="background" style="stroke: none"/><text y="-10.1" style=""><tspan class="text-outer-tspan row" x="0" y="-0.1em" dy="1.1em"><tspan font-style="normal" class="text-inner-tspan" font-weight="normal">Profile:</tspan><tspan font-style="normal" class="text-inner-tspan" font-weight="normal"> erc3643</tspan></tspan></text></g></g></g><g class="methods-group text" transform="translate(-82.34375, 49)"/><g class="divider" style=""><path d="M-94.34375 -12 C-37.53853039918916 -11.99969894550725, 19.266689201621674 -11.9993978910145, 94.34375 -11.999 M-94.34375 -12 C-26.600451071710452 -11.99964097622297, 41.142847856579095 -11.99928195244594, 94.34375 -11.999" stroke="#9370DB" stroke-width="1.3" fill="none" stroke-dasharray="0 0" style=""/></g><g class="divider" style=""><path d="M-94.34375 29 C-28.703158390766774 29.000347879915783, 36.93743321846645 29.000695759831565, 94.34375 29.001 M-94.34375 29 C-37.99776671841604 29.00029862064674, 18.348216563167924 29.00059724129348, 94.34375 29.001" stroke="#9370DB" stroke-width="1.3" fill="none" stroke-dasharray="0 0" style=""/></g></g><g class="node default" id="my-svg-classId-ISO20022Gate-5" data-look="classic" transform="translate(564.240234375, 553)"><g class="basic label-container outer-path"><path d="M-98.576171875 -53 L98.576171875 -53 L98.576171875 53 L-98.576171875 53" stroke="none" stroke-width="0" fill="#ECECFF" style=""/><path d="M-98.576171875 -53 C-35.64197415978901 -53, 27.292223555421984 -53, 98.576171875 -53 M-98.576171875 -53 C-23.423430059369025 -53, 51.72931175626195 -53, 98.576171875 -53 M98.576171875 -53 C98.576171875 -29.419891313872053, 98.576171875 -5.839782627744107, 98.576171875 53 M98.576171875 -53 C98.576171875 -12.85764749786842, 98.576171875 27.28470500426316, 98.576171875 53 M98.576171875 53 C32.70453929549275 53, -33.1670932840145 53, -98.576171875 53 M98.576171875 53 C41.122161128786736 53, -16.331849617426528 53, -98.576171875 53 M-98.576171875 53 C-98.576171875 21.627909248305087, -98.576171875 -9.744181503389825, -98.576171875 -53 M-98.576171875 53 C-98.576171875 31.6980379567621, -98.576171875 10.3960759135242, -98.576171875 -53" stroke="#9370DB" stroke-width="1.3" fill="none" stroke-dasharray="0 0" style=""/></g><g class="annotation-group text" transform="translate(0, -33)"/><g class="label-group text" transform="translate(-53.86328125, -33)"><g class="label" style="font-weight: bolder" transform="translate(0,-8.5)"><g><rect class="background" style="stroke: none"/><text y="-10.1" style=""><tspan class="text-outer-tspan row" x="0" y="-0.1em" dy="1.1em" font-weight=""><tspan font-style="normal" class="text-inner-tspan" font-weight="">ISO20022Gate</tspan></tspan></text></g></g></g><g class="members-group text" transform="translate(-86.576171875, 8)"><g class="label" style="" transform="translate(0,-8.5)"><g><rect class="background" style="stroke: none"/><text y="-10.1" style=""><tspan class="text-outer-tspan row" x="0" y="-0.1em" dy="1.1em"><tspan font-style="normal" class="text-inner-tspan" font-weight="normal">Profile:</tspan><tspan font-style="normal" class="text-inner-tspan" font-weight="normal"> iso20022</tspan></tspan></text></g></g></g><g class="methods-group text" transform="translate(-86.576171875, 49)"/><g class="divider" style=""><path d="M-98.576171875 -12 C-35.938873379786614 -11.999682289861212, 26.698425115426772 -11.999364579722425, 98.576171875 -11.999 M-98.576171875 -12 C-21.574775770673938 -11.999609432002483, 55.426620333652124 -11.999218864004966, 98.576171875 -11.999" stroke="#9370DB" stroke-width="1.3" fill="none" stroke-dasharray="0 0" style=""/></g><g class="divider" style=""><path d="M-98.576171875 29 C-21.378064756066465 29.000391565759, 55.82004236286707 29.000783131518, 98.576171875 29.001 M-98.576171875 29 C-50.94651955353635 29.00024158806036, -3.3168672320726955 29.000483176120714, 98.576171875 29.001" stroke="#9370DB" stroke-width="1.3" fill="none" stroke-dasharray="0 0" style=""/></g></g><g class="node default" id="my-svg-classId-ACTUSGate-6" data-look="classic" transform="translate(793.75390625, 553)"><g class="basic label-container outer-path"><path d="M-80.9375 -63 L80.9375 -63 L80.9375 63 L-80.9375 63" stroke="none" stroke-width="0" fill="#ECECFF" style=""/><path d="M-80.9375 -63 C-36.80027830077573 -63, 7.33694339844854 -63, 80.9375 -63 M-80.9375 -63 C-35.222846298129575 -63, 10.49180740374085 -63, 80.9375 -63 M80.9375 -63 C80.9375 -13.66293870228148, 80.9375 35.67412259543704, 80.9375 63 M80.9375 -63 C80.9375 -31.272132478715932, 80.9375 0.45573504256813635, 80.9375 63 M80.9375 63 C30.74541035492294 63, -19.446679290154123 63, -80.9375 63 M80.9375 63 C42.45608574827845 63, 3.974671496556894 63, -80.9375 63 M-80.9375 63 C-80.9375 20.814348230463715, -80.9375 -21.37130353907257, -80.9375 -63 M-80.9375 63 C-80.9375 15.633209628116397, -80.9375 -31.733580743767206, -80.9375 -63" stroke="#9370DB" stroke-width="1.3" fill="none" stroke-dasharray="0 0" style=""/></g><g class="annotation-group text" transform="translate(0, -43)"/><g class="label-group text" transform="translate(-45.390625, -43)"><g class="label" style="font-weight: bolder" transform="translate(0,-8.5)"><g><rect class="background" style="stroke: none"/><text y="-10.1" style=""><tspan class="text-outer-tspan row" x="0" y="-0.1em" dy="1.1em" font-weight=""><tspan font-style="normal" class="text-inner-tspan" font-weight="">ACTUSGate</tspan></tspan></text></g></g></g><g class="members-group text" transform="translate(-68.9375, -2)"><g class="label" style="" transform="translate(0,-8.5)"><g><rect class="background" style="stroke: none"/><text y="-10.1" style=""><tspan class="text-outer-tspan row" x="0" y="-0.1em" dy="1.1em"><tspan font-style="normal" class="text-inner-tspan" font-weight="normal">Profile:</tspan><tspan font-style="normal" class="text-inner-tspan" font-weight="normal"> actus</tspan></tspan></text></g></g><g class="label" style="" transform="translate(0,11.5)"><g><rect class="background" style="stroke: none"/><text y="-10.1" style=""><tspan class="text-outer-tspan row" x="0" y="-0.1em" dy="1.1em"><tspan font-style="normal" class="text-inner-tspan" font-weight="normal">LOCKED</tspan></tspan></text></g></g></g><g class="methods-group text" transform="translate(-68.9375, 59)"/><g class="divider" style=""><path d="M-80.9375 -22 C-30.371203245629886 -21.99968762133279, 20.19509350874023 -21.999375242665582, 80.9375 -21.999 M-80.9375 -22 C-46.31779072124749 -21.999786133070092, -11.698081442494981 -21.999572266140184, 80.9375 -21.999" stroke="#9370DB" stroke-width="1.3" fill="none" stroke-dasharray="0 0" style=""/></g><g class="divider" style=""><path d="M-80.9375 39 C-48.14239008445437 39.000202595273606, -15.347280168908739 39.00040519054722, 80.9375 39.001 M-80.9375 39 C-44.79358484208446 39.00022328287356, -8.649669684168913 39.000446565747126, 80.9375 39.001" stroke="#9370DB" stroke-width="1.3" fill="none" stroke-dasharray="0 0" style=""/></g></g><g class="node default" id="my-svg-classId-PolicyEngine-7" data-look="classic" transform="translate(831.0908203125, 335.5)"><g class="basic label-container outer-path"><path d="M-159.205078125 -56 L159.205078125 -56 L159.205078125 56 L-159.205078125 56" stroke="none" stroke-width="0" fill="#ECECFF" style=""/><path d="M-159.205078125 -56 C-92.91091079054294 -56, -26.616743456085885 -56, 159.205078125 -56 M-159.205078125 -56 C-80.61392358300881 -56, -2.022769041017625 -56, 159.205078125 -56 M159.205078125 -56 C159.205078125 -32.97723019141146, 159.205078125 -9.954460382822916, 159.205078125 56 M159.205078125 -56 C159.205078125 -18.276707361788198, 159.205078125 19.446585276423605, 159.205078125 56 M159.205078125 56 C87.22520462748525 56, 15.24533112997051 56, -159.205078125 56 M159.205078125 56 C83.55655367032374 56, 7.908029215647474 56, -159.205078125 56 M-159.205078125 56 C-159.205078125 23.24776441847016, -159.205078125 -9.504471163059677, -159.205078125 -56 M-159.205078125 56 C-159.205078125 33.18160894218335, -159.205078125 10.363217884366705, -159.205078125 -56" stroke="#9370DB" stroke-width="1.3" fill="none" stroke-dasharray="0 0" style=""/></g><g class="annotation-group text" transform="translate(0, -36)"/><g class="label-group text" transform="translate(-50.28515625, -36)"><g class="label" style="font-weight: bolder" transform="translate(0,-8.5)"><g><rect class="background" style="stroke: none"/><text y="-10.1" style=""><tspan class="text-outer-tspan row" x="0" y="-0.1em" dy="1.1em" font-weight=""><tspan font-style="normal" class="text-inner-tspan" font-weight="">PolicyEngine</tspan></tspan></text></g></g></g><g class="members-group text" transform="translate(-147.205078125, 5)"/><g class="methods-group text" transform="translate(-147.205078125, 35)"><g class="label" style="" transform="translate(0,-8.5)"><g><rect class="background" style="stroke: none"/><text y="-10.1" style=""><tspan class="text-outer-tspan row" x="0" y="-0.1em" dy="1.1em"><tspan font-style="normal" class="text-inner-tspan" font-weight="normal">+Evaluate(rule,</tspan><tspan font-style="normal" class="text-inner-tspan" font-weight="normal"> context)</tspan><tspan font-style="normal" class="text-inner-tspan" font-weight="normal"> :</tspan><tspan font-style="normal" class="text-inner-tspan" font-weight="normal"> Decision</tspan></tspan></text></g></g></g><g class="divider" style=""><path d="M-159.205078125 -15 C-47.34919603704378 -14.999648705043189, 64.50668605091244 -14.99929741008638, 159.205078125 -14.999 M-159.205078125 -15 C-80.19158145091671 -14.999751849948492, -1.1780847768334297 -14.999503699896984, 159.205078125 -14.999" stroke="#9370DB" stroke-width="1.3" fill="none" stroke-dasharray="0 0" style=""/></g><g class="divider" style=""><path d="M-159.205078125 9 C-95.20098790096445 9.00020101145949, -31.1968976769289 9.000402022918978, 159.205078125 9.001 M-159.205078125 9 C-78.97679898449253 9.000251965201379, 1.2514801560149351 9.000503930402758, 159.205078125 9.001" stroke="#9370DB" stroke-width="1.3" fill="none" stroke-dasharray="0 0" style=""/></g></g><g class="node default" id="my-svg-classId-AuditSink-8" data-look="classic" transform="translate(1179.2763671875, 335.5)"><g class="basic label-container outer-path"><path d="M-138.98046875 -56 L138.98046875 -56 L138.98046875 56 L-138.98046875 56" stroke="none" stroke-width="0" fill="#ECECFF" style=""/><path d="M-138.98046875 -56 C-69.18949666620284 -56, 0.6014754175943153 -56, 138.98046875 -56 M-138.98046875 -56 C-74.23977436458617 -56, -9.499079979172336 -56, 138.98046875 -56 M138.98046875 -56 C138.98046875 -21.32300936765619, 138.98046875 13.353981264687619, 138.98046875 56 M138.98046875 -56 C138.98046875 -22.748780132871232, 138.98046875 10.502439734257536, 138.98046875 56 M138.98046875 56 C53.602343190423156 56, -31.77578236915369 56, -138.98046875 56 M138.98046875 56 C39.68695921802623 56, -59.60655031394754 56, -138.98046875 56 M-138.98046875 56 C-138.98046875 23.292142577308923, -138.98046875 -9.415714845382155, -138.98046875 -56 M-138.98046875 56 C-138.98046875 19.421837633787575, -138.98046875 -17.15632473242485, -138.98046875 -56" stroke="#9370DB" stroke-width="1.3" fill="none" stroke-dasharray="0 0" style=""/></g><g class="annotation-group text" transform="translate(0, -36)"/><g class="label-group text" transform="translate(-37.3828125, -36)"><g class="label" style="font-weight: bolder" transform="translate(0,-8.5)"><g><rect class="background" style="stroke: none"/><text y="-10.1" style=""><tspan class="text-outer-tspan row" x="0" y="-0.1em" dy="1.1em" font-weight=""><tspan font-style="normal" class="text-inner-tspan" font-weight="">AuditSink</tspan></tspan></text></g></g></g><g class="members-group text" transform="translate(-126.98046875, 5)"/><g class="methods-group text" transform="translate(-126.98046875, 35)"><g class="label" style="" transform="translate(0,-8.5)"><g><rect class="background" style="stroke: none"/><text y="-10.1" style=""><tspan class="text-outer-tspan row" x="0" y="-0.1em" dy="1.1em"><tspan font-style="normal" class="text-inner-tspan" font-weight="normal">+Append(EvidenceRef)</tspan><tspan font-style="normal" class="text-inner-tspan" font-weight="normal"> :</tspan><tspan font-style="normal" class="text-inner-tspan" font-weight="normal"> Hash</tspan></tspan></text></g></g></g><g class="divider" style=""><path d="M-138.98046875 -15 C-64.74144403107614 -14.999732915619775, 9.497580687847716 -14.99946583123955, 138.98046875 -14.999 M-138.98046875 -15 C-58.382777245749324 -14.999710039503288, 22.214914258501352 -14.999420079006574, 138.98046875 -14.999" stroke="#9370DB" stroke-width="1.3" fill="none" stroke-dasharray="0 0" style=""/></g><g class="divider" style=""><path d="M-138.98046875 9 C-59.62130008077659 9.000285504752513, 19.737868588446815 9.000571009505025, 138.98046875 9.001 M-138.98046875 9 C-69.17000470896095 9.000251152067154, 0.6404593320781089 9.000502304134306, 138.98046875 9.001" stroke="#9370DB" stroke-width="1.3" fill="none" stroke-dasharray="0 0" style=""/></g></g></g></g></g><defs><filter id="my-svg-drop-shadow" height="130%" width="130%"><feDropShadow dx="4" dy="4" stdDeviation="0" flood-opacity="0.06" flood-color="#000000"/></filter></defs><defs><filter id="my-svg-drop-shadow-small" height="150%" width="150%"><feDropShadow dx="2" dy="2" stdDeviation="0" flood-opacity="0.06" flood-color="#000000"/></filter></defs></svg>